<?xml version="1.0" encoding="utf-8"?>
<!-- Generator: Adobe Illustrator 25.4.0, SVG Export Plug-In . SVG Version: 6.00 Build 0)  -->
<svg version="1.1" id="Capa_1" xmlns="http://www.w3.org/2000/svg" xmlns:xlink="http://www.w3.org/1999/xlink" x="0px" y="0px"
	 viewBox="0 0 512 512" style="enable-background:new 0 0 512 512;" xml:space="preserve">
<style type="text/css">
	.st0{fill:none;stroke:#231F20;stroke-width:11;stroke-linecap:round;stroke-miterlimit:10;}
	.st1{fill:none;stroke:#231F20;stroke-width:20;stroke-linecap:round;stroke-miterlimit:10;}
</style>
<g>
	<g>
		<path d="M462,92h-42V50c0-27.6-22.4-50-50-50H50C22.4,0,0,22.4,0,50v320c0,27.6,22.4,50,50,50h42v42c0,27.6,22.4,50,50,50h320
			c27.6,0,50-22.4,50-50V142C512,114.4,489.6,92,462,92z M50,400c-16.5,0-30-13.5-30-30V50c0-16.5,13.5-30,30-30h320
			c16.5,0,30,13.5,30,30v320c0,16.5-13.5,30-30,30H50z M492,462c0,16.5-13.5,30-30,30H142c-16.5,0-30-13.5-30-30v-42h258
			c27.6,0,50-22.4,50-50V112h42c16.5,0,30,13.5,30,30V462z"/>
	</g>
</g>
<g>
	<g>
		<path d="M142.2,457H142c-5.5,0-10,4.5-10,10s4.5,10,10,10h0.3c5.5,0,10-4.5,10-10S147.8,457,142.2,457z"/>
	</g>
</g>
<g>
	<g>
		<path d="M462,457H171c-5.5,0-10,4.5-10,10s4.5,10,10,10h291c5.5,0,10-4.5,10-10S467.5,457,462,457z"/>
	</g>
</g>
<g>
	<g>
		<path d="M110,35h-0.3c-5.5,0-10,4.5-10,10s4.5,10,10,10h0.3c5.5,0,10-4.5,10-10S115.6,35,110,35z"/>
	</g>
</g>
<g>
	<g>
		<path d="M81,35H50c-5.5,0-10,4.5-10,10s4.5,10,10,10h31c5.5,0,10-4.5,10-10S86.6,35,81,35z"/>
	</g>
</g>
<path class="st0" d="M11,373.1c-0.9,0-1.8-0.3-2.6-0.9c-1.7-1.4-1.9-3.9-0.5-5.6l109-129.1c0.7-0.9,1.8-1.4,2.9-1.4
	c1.1,0,2.2,0.4,3,1.2l64.8,66.1l99.4-127c0.8-1,1.9-1.6,3.2-1.5c1.2,0,2.4,0.6,3.2,1.6l116.8,157.4c1.3,1.8,0.9,4.3-0.8,5.6
	c-1.8,1.3-4.3,0.9-5.6-0.8L290.1,185.3l-99,126.5c-0.7,0.9-1.8,1.5-2.9,1.5c-1.2,0.1-2.3-0.4-3.1-1.2L120.3,246L14.1,371.7
	C13.3,372.6,12.2,373.1,11,373.1z"/>
<circle class="st1" cx="112" cy="141.5" r="33.2"/>
</svg>
