<svg id="Capa_1" enable-background="new 0 0 512.02 512.02" height="512" viewBox="0 0 512.02 512.02" width="512" xmlns="http://www.w3.org/2000/svg"><g><path d="m368.171 197.227c18.461-18.462 18.461-48.501 0-66.962-18.462-18.462-48.501-18.462-66.963 0-8.943 8.943-13.869 20.834-13.869 33.481 0 12.648 4.926 24.539 13.869 33.482 18.462 18.46 48.501 18.46 66.963-.001zm-45.75-21.214c-3.277-3.277-5.082-7.634-5.082-12.268s1.805-8.991 5.082-12.268c6.765-6.765 17.772-6.765 24.537 0 6.764 6.765 6.764 17.772 0 24.536-6.765 6.765-17.772 6.765-24.537 0z"/><path d="m180.306 503.835 54.597-54.597c10.913-10.912 10.915-28.576 0-39.49l-37.627-37.627 78.842-78.841 28.982 28.982c22.451 22.453 58.795 22.456 81.249 0l95.084-95.083c22.399-22.399 22.4-58.848 0-81.25l-129.089-129.088c-22.451-22.453-58.793-22.456-81.249 0l-95.083 95.083c-22.454 22.454-22.456 58.794 0 81.25l28.982 28.982-181.625 181.624c-12.776 12.778-12.776 33.567.001 46.344l24.778 24.779c12.806 12.807 33.537 12.81 46.345 0l8.695-8.695 37.628 37.627c10.911 10.912 28.577 10.914 39.49 0zm-66.511-69.447c-5.854-5.853-15.356-5.858-21.213 0l-19.303 19.302c-.67.67-1.435.812-1.958.812s-1.288-.141-1.959-.812l-24.779-24.779c-1.08-1.08-1.08-2.838 0-3.918l192.23-192.23c5.858-5.858 5.858-15.355 0-21.213l-39.589-39.589c-10.729-10.728-10.731-28.092 0-38.823l95.083-95.083c10.728-10.728 28.093-10.732 38.823 0l129.09 129.087c10.701 10.704 10.702 28.12 0 38.823l-95.084 95.083c-10.729 10.729-28.092 10.73-38.823 0l-39.589-39.589c-5.857-5.858-15.355-5.858-21.213 0l-100.055 100.055c-5.858 5.857-5.858 15.355 0 21.213l46.765 46.766-51.66 51.66z"/></g></svg>